<svg width="50" height="50" viewBox="0 0 50 50" fill="none" xmlns="http://www.w3.org/2000/svg">
<path d="M11.4125 31.0063L7.61249 27.0688C3.01874 22.3063 3.01874 14.6188 7.61249 9.85833C8.6982 8.71875 10.004 7.81151 11.4508 7.19161C12.8976 6.57172 14.4552 6.25208 16.0292 6.25208C17.6031 6.25208 19.1607 6.57172 20.6075 7.19161C22.0543 7.81151 23.3601 8.71875 24.4458 9.85833L25 10.4292L25.5521 9.85833C26.6391 8.7203 27.9451 7.81395 29.3916 7.19384C30.838 6.57373 32.395 6.25268 33.9687 6.25C37.1354 6.25 40.1625 7.55 42.3854 9.85833C44.6041 12.1726 45.8399 15.2565 45.8333 18.4625C45.8405 21.6682 44.6055 24.7521 42.3875 27.0667C41.1319 28.3722 39.8819 29.6854 38.6375 31.0063M25 44.7917V22.9167M25 44.7917L33.3333 36.4583M25 44.7917L16.6667 36.4583" stroke="#3F3F3F" stroke-width="1.5" stroke-linecap="round" stroke-linejoin="round"/>
</svg>
