<svg width="32" height="32" viewBox="0 0 32 32" fill="none" xmlns="http://www.w3.org/2000/svg">
<path fill-rule="evenodd" clip-rule="evenodd" d="M12.8216 4.85609C14.2322 2.40409 17.7682 2.40409 19.1789 4.85609L29.9029 23.5068C31.3082 25.9508 29.5429 29.0001 26.7242 29.0001H5.27624C2.45624 29.0001 0.692237 25.9508 2.09757 23.5068L12.8216 4.85609ZM16.0002 11.0001C16.2655 11.0001 16.5198 11.1054 16.7073 11.293C16.8949 11.4805 17.0002 11.7349 17.0002 12.0001V17.3334C17.0002 17.5986 16.8949 17.853 16.7073 18.0405C16.5198 18.2281 16.2655 18.3334 16.0002 18.3334C15.735 18.3334 15.4807 18.2281 15.2931 18.0405C15.1056 17.853 15.0002 17.5986 15.0002 17.3334V12.0001C15.0002 11.7349 15.1056 11.4805 15.2931 11.293C15.4807 11.1054 15.735 11.0001 16.0002 11.0001ZM16.7576 23.3334C16.9292 23.1354 17.0162 22.878 17 22.6165C16.9837 22.3549 16.8655 22.1102 16.6707 21.935C16.4759 21.7598 16.2201 21.668 15.9583 21.6794C15.6965 21.6908 15.4497 21.8046 15.2709 21.9961L15.2576 22.0108C15.0866 22.2087 14.9999 22.4658 15.0162 22.7269C15.0325 22.9879 15.1505 23.2322 15.3448 23.4074C15.5391 23.5825 15.7943 23.6745 16.0557 23.6637C16.317 23.6528 16.5637 23.54 16.7429 23.3494L16.7576 23.3334Z" fill="#2B66D0"/>
</svg>
